HIERARCHY
ROOT Hips
{
  OFFSET 5.80788e-005 67.184 3.4734
  CHANNELS 6 Xposition Yposition Zposition Zrotation Xrotation Yrotation
  JOINT Chest
  {
    OFFSET 0 8.7983 -4.7612
    CHANNELS 6 Xposition Yposition Zposition Zrotation Xrotation Yrotation
    JOINT Chest2
    {
      OFFSET 0 8.0291 0.4195
      CHANNELS 6 Xposition Yposition Zposition Zrotation Xrotation Yrotation
      JOINT Chest3
      {
        OFFSET 0 9.9351 -2.2114
        CHANNELS 6 Xposition Yposition Zposition Zrotation Xrotation Yrotation
        JOINT Neck
        {
          OFFSET 0 22.3885 -0.4656
          CHANNELS 6 Xposition Yposition Zposition Zrotation Xrotation Yrotation
          JOINT Head
          {
            OFFSET -0.0001 12.643 3.4389
            CHANNELS 6 Xposition Yposition Zposition Zrotation Xrotation Yrotation
            End Site
            {
              OFFSET 0.0001 17.6655 0.5274
            }
          }
        }
        JOINT LeftCollar
        {
          OFFSET 2.2603 21.606 7.4023
          CHANNELS 6 Xposition Yposition Zposition Zrotation Xrotation Yrotation
          JOINT LeftShoulder
          {
            OFFSET 13.5163 -1.1332 -5.0146
            CHANNELS 6 Xposition Yposition Zposition Zrotation Xrotation Yrotation
            JOINT LeftElbow
            {
              OFFSET -0.0995 -28.05 -0.2431
              CHANNELS 6 Xposition Yposition Zposition Zrotation Xrotation Yrotation
              JOINT LeftWrist
              {
                OFFSET 0.0679 -23.3996 -0.1402
                CHANNELS 6 Xposition Yposition Zposition Zrotation Xrotation Yrotation
                JOINT LeftFinger1
                {
                  OFFSET 0.7932 -9.069 2.5189
                  CHANNELS 6 Xposition Yposition Zposition Zrotation Xrotation Yrotation
                  JOINT LeftFinger11
                  {
                    OFFSET -0.8272 -3.3923 0.5977
                    CHANNELS 6 Xposition Yposition Zposition Zrotation Xrotation Yrotation
                    JOINT LeftFinger12
                    {
                      OFFSET -0.5649 -2.3158 0.4082
                      CHANNELS 6 Xposition Yposition Zposition Zrotation Xrotation Yrotation
                      End Site
                      {
                        OFFSET -0.4919 -1.6479 0.2673
                      }
                    }
                  }
                }
                JOINT LeftFinger2
                {
                  OFFSET 0.9159 -9.2044 0.2193
                  CHANNELS 6 Xposition Yposition Zposition Zrotation Xrotation Yrotation
                  JOINT LeftFinger21
                  {
                    OFFSET 0.0117 -4.1944 -0.0248
                    CHANNELS 6 Xposition Yposition Zposition Zrotation Xrotation Yrotation
                    JOINT LeftFinger22
                    {
                      OFFSET 0.0071 -2.3249 -0.0142
                      CHANNELS 6 Xposition Yposition Zposition Zrotation Xrotation Yrotation
                      End Site
                      {
                        OFFSET -0.1475 -2.0882 0.0028
                      }
                    }
                  }
                }
                JOINT LeftFinger3
                {
                  OFFSET 0.6113 -8.7231 -2.0637
                  CHANNELS 6 Xposition Yposition Zposition Zrotation Xrotation Yrotation
                  JOINT LeftFinger31
                  {
                    OFFSET -0.1927 -3.8059 -0.2383
                    CHANNELS 6 Xposition Yposition Zposition Zrotation Xrotation Yrotation
                    JOINT LeftFinger32
                    {
                      OFFSET -0.1091 -2.1688 -0.1362
                      CHANNELS 6 Xposition Yposition Zposition Zrotation Xrotation Yrotation
                      End Site
                      {
                        OFFSET -0.2358 -1.9176 -0.0906
                      }
                    }
                  }
                }
                JOINT LeftFinger4
                {
                  OFFSET -0.6151 -8.0947 -3.5641
                  CHANNELS 6 Xposition Yposition Zposition Zrotation Xrotation Yrotation
                  JOINT LeftFinger41
                  {
                    OFFSET -0.4882 -2.341 -0.6462
                    CHANNELS 6 Xposition Yposition Zposition Zrotation Xrotation Yrotation
                    JOINT LeftFinger42
                    {
                      OFFSET -0.3575 -1.7167 -0.4742
                      CHANNELS 6 Xposition Yposition Zposition Zrotation Xrotation Yrotation
                      End Site
                      {
                        OFFSET -0.4187 -1.5237 -0.3496
                      }
                    }
                  }
                }
                JOINT LeftFinger0
                {
                  OFFSET -1.42 -1.8761 1.4223
                  CHANNELS 6 Xposition Yposition Zposition Zrotation Xrotation Yrotation
                  JOINT LeftFinger01
                  {
                    OFFSET -1.1471 -3.4929 2.6334
                    CHANNELS 6 Xposition Yposition Zposition Zrotation Xrotation Yrotation
                    JOINT LeftFinger02
                    {
                      OFFSET -0.823 -2.3 1.6571
                      CHANNELS 6 Xposition Yposition Zposition Zrotation Xrotation Yrotation
                      End Site
                      {
                        OFFSET -0.5822 -1.6914 1.1582
                      }
                    }
                  }
                }
              }
            }
          }
        }
        JOINT RightCollar
        {
          OFFSET -2.2603 21.606 7.4023
          CHANNELS 6 Xposition Yposition Zposition Zrotation Xrotation Yrotation
          JOINT RightShoulder
          {
            OFFSET -13.5187 -1.1334 -5.0155
            CHANNELS 6 Xposition Yposition Zposition Zrotation Xrotation Yrotation
            JOINT RightElbow
            {
              OFFSET 0.0994 -28.0499 -0.2431
              CHANNELS 6 Xposition Yposition Zposition Zrotation Xrotation Yrotation
              JOINT RightWrist
              {
                OFFSET -0.0679 -23.3996 -0.1402
                CHANNELS 6 Xposition Yposition Zposition Zrotation Xrotation Yrotation
                JOINT RightFinger1
                {
                  OFFSET -0.7932 -9.0691 2.5189
                  CHANNELS 6 Xposition Yposition Zposition Zrotation Xrotation Yrotation
                  JOINT RightFinger11
                  {
                    OFFSET 0.8272 -3.3923 0.5977
                    CHANNELS 6 Xposition Yposition Zposition Zrotation Xrotation Yrotation
                    JOINT RightFinger12
                    {
                      OFFSET 0.565 -2.3158 0.4082
                      CHANNELS 6 Xposition Yposition Zposition Zrotation Xrotation Yrotation
                      End Site
                      {
                        OFFSET 0.4919 -1.6479 0.2673
                      }
                    }
                  }
                }
                JOINT RightFinger2
                {
                  OFFSET -0.916 -9.2044 0.2193
                  CHANNELS 6 Xposition Yposition Zposition Zrotation Xrotation Yrotation
                  JOINT RightFinger21
                  {
                    OFFSET -0.0117 -4.1944 -0.0248
                    CHANNELS 6 Xposition Yposition Zposition Zrotation Xrotation Yrotation
                    JOINT RightFinger22
                    {
                      OFFSET -0.0071 -2.3249 -0.0142
                      CHANNELS 6 Xposition Yposition Zposition Zrotation Xrotation Yrotation
                      End Site
                      {
                        OFFSET 0.1475 -2.0882 0.0028
                      }
                    }
                  }
                }
                JOINT RightFinger3
                {
                  OFFSET -0.6113 -8.7231 -2.0637
                  CHANNELS 6 Xposition Yposition Zposition Zrotation Xrotation Yrotation
                  JOINT RightFinger31
                  {
                    OFFSET 0.1927 -3.8059 -0.2383
                    CHANNELS 6 Xposition Yposition Zposition Zrotation Xrotation Yrotation
                    JOINT RightFinger32
                    {
                      OFFSET 0.1091 -2.1688 -0.1362
                      CHANNELS 6 Xposition Yposition Zposition Zrotation Xrotation Yrotation
                      End Site
                      {
                        OFFSET 0.2358 -1.9176 -0.0906
                      }
                    }
                  }
                }
                JOINT RightFinger4
                {
                  OFFSET 0.6151 -8.0947 -3.564
                  CHANNELS 6 Xposition Yposition Zposition Zrotation Xrotation Yrotation
                  JOINT RightFinger41
                  {
                    OFFSET 0.4882 -2.341 -0.6462
                    CHANNELS 6 Xposition Yposition Zposition Zrotation Xrotation Yrotation
                    JOINT RightFinger42
                    {
                      OFFSET 0.3574 -1.7166 -0.4742
                      CHANNELS 6 Xposition Yposition Zposition Zrotation Xrotation Yrotation
                      End Site
                      {
                        OFFSET 0.4187 -1.5237 -0.3496
                      }
                    }
                  }
                }
                JOINT RightFinger0
                {
                  OFFSET 1.4199 -1.8761 1.4221
                  CHANNELS 6 Xposition Yposition Zposition Zrotation Xrotation Yrotation
                  JOINT RightFinger01
                  {
                    OFFSET 1.1472 -3.4929 2.6336
                    CHANNELS 6 Xposition Yposition Zposition Zrotation Xrotation Yrotation
                    JOINT RightFinger02
                    {
                      OFFSET 0.8229 -2.3 1.6571
                      CHANNELS 6 Xposition Yposition Zposition Zrotation Xrotation Yrotation
                      End Site
                      {
                        OFFSET 0.5822 -1.6914 1.1582
                      }
                    }
                  }
                }
              }
            }
          }
        }
      }
    }
  }
  JOINT RightHip
  {
    OFFSET -9.412 3.9771 -0.7758
    CHANNELS 6 Xposition Yposition Zposition Zrotation Xrotation Yrotation
    JOINT RightKnee
    {
      OFFSET -0.7531 -40.938 0
      CHANNELS 6 Xposition Yposition Zposition Zrotation Xrotation Yrotation
      JOINT RightAnkle
      {
        OFFSET 0 -40.1986 0
        CHANNELS 6 Xposition Yposition Zposition Zrotation Xrotation Yrotation
        JOINT RightToe
        {
          OFFSET 0 -4.4182 9.239
          CHANNELS 6 Xposition Yposition Zposition Zrotation Xrotation Yrotation
          End Site
          {
            OFFSET 0 0 6.1981
          }
        }
      }
    }
  }
  JOINT LeftHip
  {
    OFFSET 9.4119 3.9773 -0.7758
    CHANNELS 6 Xposition Yposition Zposition Zrotation Xrotation Yrotation
    JOINT LeftKnee
    {
      OFFSET 0.7532 -40.9383 0
      CHANNELS 6 Xposition Yposition Zposition Zrotation Xrotation Yrotation
      JOINT LeftAnkle
      {
        OFFSET 0 -40.1986 0
        CHANNELS 6 Xposition Yposition Zposition Zrotation Xrotation Yrotation
        JOINT LeftToe
        {
          OFFSET 0 -4.4182 9.239
          CHANNELS 6 Xposition Yposition Zposition Zrotation Xrotation Yrotation
          End Site
          {
            OFFSET 0 0 6.1981
          }
        }
      }
    }
  }
}
MOTION
Frames:	4
Frame Time:	0.0333333
5.80788e-005 67.184 3.4734 0 0 -0 0 8.7983 -4.7612 0 0 -0 0 8.0291 0.4195 0 0 -0 0 9.9351 -2.2114 0 0 -0 0 22.3885 -0.4656 0 0 -0 -0.0001 12.643 3.4389 0 0 -0 2.2603 21.606 7.4023 0 0 -12.5014 13.5163 -1.1332 -5.0146 88.1196 14.2451 10.6914 -0.0995 -28.05 -0.2431 -0.00160068 -0.00239207 0.000740045 0.0679 -23.3996 -0.1402 -8.4365e-005 7.00714e-005 -9.52055e-007 0.7932 -9.069 2.5189 9.93923e-017 -1.98785e-016 -1.59028e-015 -0.8272 -3.3923 0.5977 9.93923e-017 -5.96354e-016 -1.59028e-015 -0.5649 -2.3158 0.4082 -9.93923e-017 -5.96354e-016 -1.59028e-015 0.9159 -9.2044 0.2193 9.93923e-017 -1.98785e-016 -1.59028e-015 0.0117 -4.1944 -0.0248 -0.0128176 0.00232552 8.52707e-005 0.0071 -2.3249 -0.0142 9.93923e-017 5.96354e-016 -0 0.6113 -8.7231 -2.0637 9.93923e-017 -1.98785e-016 -1.59028e-015 -0.1927 -3.8059 -0.2383 -0.0160551 0.00299681 0.000857156 -0.1091 -2.1688 -0.1362 -2.48481e-016 0 3.18055e-015 -0.6151 -8.0947 -3.5641 9.93923e-017 -1.98785e-016 -1.59028e-015 -0.4882 -2.341 -0.6462 -0.0125865 0.0031206 0.00282719 -0.3575 -1.7167 -0.4742 0 1.98785e-016 -0 -1.42 -1.8761 1.4223 9.93923e-017 -1.98785e-016 -1.59028e-015 -1.1471 -3.4929 2.6334 9.93923e-017 -5.96354e-016 -1.59028e-015 -0.823 -2.3 1.6571 -9.93923e-017 -5.96354e-016 -1.59028e-015 -2.2603 21.606 7.4023 -0.865644 0.16582 7.03859 -13.5187 -1.1334 -5.0155 -88.0329 10.2057 -10.5567 0.0994 -28.0499 -0.2431 0.0015593 -0.00248883 -0.000788628 -0.0679 -23.3996 -0.1402 7.87605e-005 4.10553e-005 1.24965e-005 -0.7932 -9.0691 2.5189 -3.97569e-016 -7.95139e-016 3.18055e-015 0.8272 -3.3923 0.5977 -1.98785e-016 -3.97569e-016 3.18055e-015 0.565 -2.3158 0.4082 -1.98785e-016 0 3.18055e-015 -0.916 -9.2044 0.2193 -3.97569e-016 -7.95139e-016 3.18055e-015 -0.0117 -4.1944 -0.0248 0.0129473 0.00231697 -8.70038e-005 -0.0071 -2.3249 -0.0142 9.93923e-017 -7.95139e-016 1.59028e-015 -0.6113 -8.7231 -2.0637 -3.97569e-016 -7.95139e-016 3.18055e-015 0.1927 -3.8059 -0.2383 0.0163314 0.00303369 -0.000872333 0.1091 -2.1688 -0.1362 3.97569e-016 7.95139e-016 -3.18055e-015 0.6151 -8.0947 -3.564 -3.97569e-016 -7.95139e-016 3.18055e-015 0.4882 -2.341 -0.6462 0.0145763 0.00367772 -0.00326275 0.3574 -1.7166 -0.4742 9.93923e-017 -3.97569e-016 -0 1.4199 -1.8761 1.4221 -3.97569e-016 -7.95139e-016 3.18055e-015 1.1472 -3.4929 2.6336 -1.98785e-016 -3.97569e-016 3.18055e-015 0.8229 -2.3 1.6571 -1.98785e-016 0 3.18055e-015 -9.412 3.9771 -0.7758 3.42485 1.36937 -0.0640303 -0.7531 -40.938 0 0.000136572 0.69354 0.00145564 1.77636e-015 -40.1986 -1.11022e-016 -3.42573 -2.06297 -0.0607933 8.88178e-016 -4.4182 9.239 -3.19502e-024 0 -1.48106e-024 9.4119 3.9773 -0.7758 -3.42498 1.36123 0.0639712 0.7532 -40.9383 2.22045e-016 -6.769e-005 0.712612 -0.0012277 8.88179e-016 -40.1986 0 3.42582 -2.07388 0.0612819 -8.88178e-016 -4.4182 9.239 2.55305e-023 0 -2.31416e-026 
3.28589e-005 19.2927 -62.2099 -4.06824e-007 70.9971 5.32656e-007 0 8.7983 -4.7612 -2.32547 5.24551 0.353142 0 8.0291 0.4195 -4.71327 10.4721 0.926623 0 9.9351 -2.2114 -4.71328 10.4722 0.926627 1.77636e-015 22.3885 -0.4656 -8.63415 17.633 2.81976 -0.0001 12.643 3.4389 -26.2738 -41.3756 -19.7417 2.2603 21.606 7.4023 -9.59949 -0.333484 -16.6626 13.5163 -1.1332 -5.0146 55.7995 -50.3033 58.0354 -0.0995 -28.05 -0.2431 -137.232 -51.8327 173.681 0.0679 -23.3996 -0.1402 -11.739 12.8356 31.3121 0.7932 -9.069 2.5189 -3.36385e-006 4.66647e-006 3.80591e-006 -0.8272 -3.3923 0.5977 1.59028e-015 3.18055e-015 -7.95139e-016 -0.5649 -2.3158 0.4082 1.59028e-015 0 -2.38542e-015 0.9159 -9.2044 0.2193 -3.36385e-006 4.66647e-006 3.80591e-006 0.0117 -4.1944 -0.0248 -0.0127978 0.00233199 9.27097e-005 0.0071 -2.3249 -0.0142 -2.01037e-006 -4.54673e-006 -9.77168e-007 0.6113 -8.7231 -2.0637 -3.36385e-006 4.66647e-006 3.80591e-006 -0.1927 -3.8059 -0.2383 -0.0160297 0.00299053 0.000852819 -0.1091 -2.1688 -0.1362 1.34671e-006 7.25815e-007 -2.73902e-006 -0.6151 -8.0947 -3.5641 -3.36385e-006 4.66647e-006 3.80591e-006 -0.4882 -2.341 -0.6462 -0.0125789 0.00311117 0.00282309 -0.3575 -1.7167 -0.4742 5.35582e-006 -3.65668e-006 8.34056e-006 -1.42 -1.8761 1.4223 -3.36385e-006 4.66647e-006 3.80591e-006 -1.1471 -3.4929 2.6334 1.59028e-015 3.18055e-015 -7.95139e-016 -0.823 -2.3 1.6571 1.59028e-015 0 -2.38542e-015 -2.2603 21.606 7.4023 8.79956 -0.458431 11.2631 -13.5187 -1.1334 -5.0155 -52.0065 -51.7705 -53.6485 0.0994 -28.0499 -0.2431 -161.051 -55.431 -125.874 -0.0679 -23.3996 -0.1402 11.6487 8.19349 -37.1859 -0.7932 -9.0691 2.5189 3.97569e-016 -1.59028e-015 1.23743e-014 0.8272 -3.3923 0.5977 -7.95139e-016 1.59028e-015 5.91384e-015 0.565 -2.3158 0.4082 -0 0 9.34288e-015 -0.916 -9.2044 0.2193 3.97569e-016 -1.59028e-015 1.23743e-014 -0.0117 -4.1944 -0.0248 0.012929 0.00231627 -9.98118e-005 -0.0071 -2.3249 -0.0142 5.66079e-007 5.35974e-006 -5.5419e-006 -0.6113 -8.7231 -2.0637 3.97569e-016 -1.59028e-015 1.23743e-014 0.1927 -3.8059 -0.2383 0.0163255 0.00302785 -0.000871562 0.1091 -2.1688 -0.1362 6.83422e-006 1.6432e-005 -6.12937e-006 0.6151 -8.0947 -3.564 3.97569e-016 -1.59028e-015 1.23743e-014 0.4882 -2.341 -0.6462 0.0145777 0.00368091 -0.00326976 0.3574 -1.7166 -0.4742 -0 0 6.65929e-015 1.4199 -1.8761 1.4221 3.97569e-016 -1.59028e-015 1.23743e-014 1.1472 -3.4929 2.6336 -7.95139e-016 1.59028e-015 5.91384e-015 0.8229 -2.3 1.6571 -0 0 9.34288e-015 -9.412 3.9771 -0.7758 -80.3308 -56.6883 -68.8428 -0.7531 -40.938 0 156.05 58.3698 -165.242 0 -40.1986 0 -6.86289 21.0908 -4.41598 2.66454e-015 -4.4182 9.239 -1.24457e-005 -3.59137e-006 5.08001e-006 9.4119 3.9773 -0.7758 80.3247 -56.6925 68.8369 0.7532 -40.9383 0 -156.052 58.3698 165.239 0 -40.1986 0 6.86082 21.0899 4.41282 -2.66454e-015 -4.4182 9.239 2.59048e-006 1.82596e-006 2.22114e-006 
3.28933e-005 19.2927 -62.2099 1.15901e-006 70.9971 -1.02235e-006 6.77626e-021 8.7983 -4.7612 -2.1928 5.25161 0.316443 0 8.0291 0.4195 -4.44296 10.4871 0.840751 -8.88179e-016 9.9351 -2.2114 -4.44298 10.4871 0.840755 0 22.3885 -0.4656 -8.26058 16.9575 2.67922 -0.0001 12.643 3.4389 -24.8415 -40.95 -18.4875 2.2603 21.606 7.4023 -9.94676 -0.00754924 -15.9548 13.5163 -1.1332 -5.0146 56.6029 -50.1051 57.9691 -0.0995 -28.05 -0.2431 -137.232 -51.8328 173.681 0.0679 -23.3996 -0.1402 -10.6917 13.1787 32.0779 0.7932 -9.069 2.5189 -4.77083e-015 1.59028e-014 3.18055e-015 -0.8272 -3.3923 0.5977 5.29669e-031 1.27222e-014 -2.38542e-015 -0.5649 -2.3158 0.4082 -3.18055e-015 1.27222e-014 -6.36111e-015 0.9159 -9.2044 0.2193 -4.77083e-015 1.59028e-014 3.18055e-015 0.0117 -4.1944 -0.0248 -0.0128533 0.00234296 9.57391e-005 0.0071 -2.3249 -0.0142 1.59028e-015 9.54166e-015 -2.38542e-015 0.6113 -8.7231 -2.0637 -4.77083e-015 1.59028e-014 3.18055e-015 -0.1927 -3.8059 -0.2383 -0.0160512 0.00300268 0.00086039 -0.1091 -2.1688 -0.1362 0 0 -4.77083e-015 -0.6151 -8.0947 -3.5641 -4.77083e-015 1.59028e-014 3.18055e-015 -0.4882 -2.341 -0.6462 -0.0125809 0.00311891 0.00283014 -0.3575 -1.7167 -0.4742 4.41391e-032 3.18055e-015 -7.95139e-016 -1.42 -1.8761 1.4223 -4.77083e-015 1.59028e-014 3.18055e-015 -1.1471 -3.4929 2.6334 5.29669e-031 1.27222e-014 -2.38542e-015 -0.823 -2.3 1.6571 -3.18055e-015 1.27222e-014 -6.36111e-015 -2.2603 21.606 7.4023 8.38588 -0.79371 11.7077 -13.5187 -1.1334 -5.0155 -51.9176 -51.9043 -53.5294 0.0994 -28.0499 -0.2431 -160.008 -56.153 -124.985 -0.0679 -23.3996 -0.1402 11.6435 8.52791 -36.4025 -0.7932 -9.0691 2.5189 3.58042e-006 1.71336e-005 -9.88461e-006 0.8272 -3.3923 0.5977 3.9356e-006 5.9981e-006 -2.58899e-006 0.565 -2.3158 0.4082 2.41636e-006 -6.44498e-006 -5.74947e-008 -0.916 -9.2044 0.2193 3.58042e-006 1.71336e-005 -9.88461e-006 -0.0117 -4.1944 -0.0248 0.0129621 0.0023184 -9.25518e-005 -0.0071 -2.3249 -0.0142 -5.69657e-007 4.66196e-008 3.15045e-006 -0.6113 -8.7231 -2.0637 3.58042e-006 1.71336e-005 -9.88461e-006 0.1927 -3.8059 -0.2383 0.0163396 0.00304094 -0.000870854 0.1091 -2.1688 -0.1362 1.41134e-006 -7.73166e-007 -3.01004e-006 0.6151 -8.0947 -3.564 3.58042e-006 1.71336e-005 -9.88461e-006 0.4882 -2.341 -0.6462 0.0145817 0.00370308 -0.00325525 0.3574 -1.7166 -0.4742 3.97569e-016 1.11319e-014 5.46658e-016 1.4199 -1.8761 1.4221 3.58042e-006 1.71336e-005 -9.88461e-006 1.1472 -3.4929 2.6336 3.9356e-006 5.9981e-006 -2.58899e-006 0.8229 -2.3 1.6571 2.41636e-006 -6.44498e-006 -5.74947e-008 -9.412 3.9771 -0.7758 -80.3309 -56.6882 -68.8428 -0.7531 -40.938 0 156.05 58.3698 -165.242 0 -40.1986 7.10543e-015 -6.86292 21.0908 -4.41596 0 -4.4182 9.239 -4.24632e-006 -3.81634e-007 -4.38056e-007 9.4119 3.9773 -0.7758 80.3246 -56.6925 68.8369 0.7532 -40.9383 0 -156.052 58.3698 165.239 3.55271e-015 -40.1986 0 6.86083 21.0898 4.41281 -4.44089e-015 -4.4182 9.239 -3.77691e-015 -4.72526e-007 3.77691e-015 
3.28698e-005 19.2927 -62.2099 2.0094e-007 70.9971 -2.51443e-007 -6.77626e-021 8.7983 -4.7612 -2.05999 5.25756 0.279696 0 8.0291 0.4195 -4.17234 10.5015 0.75472 0 9.9351 -2.2114 -4.17235 10.5015 0.754725 0 22.3885 -0.4656 -7.88945 16.2801 2.54356 -0.0001 12.643 3.4389 -23.4262 -40.4994 -17.2516 2.2603 21.606 7.4023 -10.2986 0.314507 -15.2437 13.5163 -1.1332 -5.0146 57.405 -49.9069 57.8986 -0.0995 -28.05 -0.2431 -137.233 -51.8328 173.681 0.0679 -23.3996 -0.1402 -9.64182 13.5374 32.8426 0.7932 -9.06901 2.5189 3.18055e-015 9.54166e-015 -8.74653e-015 -0.8272 -3.3923 0.5977 -1.59028e-015 6.36111e-015 -3.97569e-015 -0.5649 -2.3158 0.4082 -1.59028e-015 6.36111e-015 -4.77083e-015 0.9159 -9.20441 0.2193 3.18055e-015 9.54166e-015 -8.74653e-015 0.0117 -4.1944 -0.0248 -0.0128132 0.00232255 8.74748e-005 0.0071 -2.3249 -0.0142 1.59028e-015 -6.36111e-015 -3.18055e-015 0.6113 -8.7231 -2.0637 3.18055e-015 9.54166e-015 -8.74653e-015 -0.1927 -3.8059 -0.2383 -0.0160498 0.00299514 0.000852899 -0.1091 -2.1688 -0.1362 -3.18055e-015 9.54166e-015 -2.38542e-015 -0.6151 -8.0947 -3.5641 3.18055e-015 9.54166e-015 -8.74653e-015 -0.4882 -2.341 -0.6462 -0.0125783 0.00312235 0.00282183 -0.3575 -1.7167 -0.4742 1.59028e-015 -3.18055e-015 2.38542e-015 -1.42 -1.8761 1.4223 3.18055e-015 9.54166e-015 -8.74653e-015 -1.1471 -3.4929 2.6334 -1.59028e-015 6.36111e-015 -3.97569e-015 -0.823 -2.3 1.6571 -1.59028e-015 6.36111e-015 -4.77083e-015 -2.2603 21.606 7.4023 7.97435 -1.13274 12.1504 -13.5187 -1.1334 -5.0155 -51.8279 -52.0382 -53.4098 0.0994 -28.0499 -0.2431 -158.923 -56.8673 -124.054 -0.0679 -23.3996 -0.1402 11.6336 8.86285 -35.6169 -0.7932 -9.0691 2.5189 6.13946e-007 -6.24101e-006 -2.32399e-006 0.8272 -3.3923 0.5977 -1.98785e-016 -1.59028e-015 3.42904e-015 0.565 -2.3158 0.4082 7.95139e-016 -6.36111e-015 6.95746e-015 -0.916 -9.2044 0.2193 6.13946e-007 -6.24101e-006 -2.32399e-006 -0.0117 -4.1944 -0.0248 0.0129608 0.00232767 -8.32508e-005 -0.0071 -2.3249 -0.0142 -1.98785e-016 4.77083e-015 6.11263e-015 -0.6113 -8.7231 -2.0637 6.13946e-007 -6.24101e-006 -2.32399e-006 0.1927 -3.8059 -0.2383 0.0163515 0.00303654 -0.000870624 0.1091 -2.1688 -0.1362 -1.98785e-016 -3.18055e-015 5.26779e-015 0.6151 -8.0947 -3.564 6.13946e-007 -6.24101e-006 -2.32399e-006 0.4882 -2.341 -0.6462 0.0146334 0.00370997 -0.00328107 0.3574 -1.7166 -0.4742 -2.20695e-032 3.18055e-015 3.97569e-016 1.4199 -1.8761 1.4221 6.13946e-007 -6.24101e-006 -2.32399e-006 1.1472 -3.4929 2.6336 -1.98785e-016 -1.59028e-015 3.42904e-015 0.8229 -2.3 1.6571 7.95139e-016 -6.36111e-015 6.95746e-015 -9.412 3.9771 -0.7758 -80.3308 -56.6883 -68.8428 -0.7531 -40.938 0 156.05 58.3698 -165.242 3.55271e-015 -40.1986 0 -6.86289 21.0908 -4.41598 1.77636e-015 -4.4182 9.239 -1.24457e-005 -3.59137e-006 5.08001e-006 9.4119 3.9773 -0.7758 80.3247 -56.6925 68.8369 0.7532 -40.9383 -7.10543e-015 -156.052 58.3698 165.239 -3.55271e-015 -40.1986 0 6.86082 21.0899 4.41282 0 -4.4182 9.239 2.59048e-006 1.82596e-006 2.22114e-006 
